<?xml version="1.0" standalone="no"?><svg xmlns="http://www.w3.org/2000/svg" viewBox="0 0 1440 320"><path fill="#FAF8F6" fill-opacity="2" d="M0,192L34.3,181.3C68.6,171,137,149,206,128C274.3,107,343,85,411,64C480,43,549,21,617,26.7C685.7,32,754,64,823,90.7C891.4,117,960,139,1029,149.3C1097.1,160,1166,160,1234,149.3C1302.9,139,1371,117,1406,106.7L1440,96L1440,320L1405.7,320C1371.4,320,1303,320,1234,320C1165.7,320,1097,320,1029,320C960,320,891,320,823,320C754.3,320,686,320,617,320C548.6,320,480,320,411,320C342.9,320,274,320,206,320C137.1,320,69,320,34,320L0,320Z"></path></svg>